<?xml version="1.0" encoding="iso-8859-1"?>
<!-- Generator: Adobe Illustrator 19.0.0, SVG Export Plug-In . SVG Version: 6.00 Build 0)  -->
<svg version="1.1" id="Layer_1" xmlns="http://www.w3.org/2000/svg" xmlns:xlink="http://www.w3.org/1999/xlink" x="0px" y="0px"
	 viewBox="0 0 489.701 489.701" style="enable-background:new 0 0 489.701 489.701;" xml:space="preserve">
<g>
	<g>
		<path d="M468.5,0.05H20.2C9.6,0.05,0,9.65,0,20.25v349.2c0,10.6,8.5,20.2,20.2,20.2h204.4v59.6h-69.2c-10.6,0-20.2,8.5-20.2,20.2
			c0,10.6,8.5,20.2,20.2,20.2h178.9c10.6,0,20.2-9.6,20.2-20.2s-8.5-20.2-20.2-20.2h-69.2v-59.6h204.4c10.6,0,20.2-8.5,20.2-20.2
			V20.25C489.8,9.65,480.2,0.05,468.5,0.05z M448.3,349.25H40.5V40.55h407.8V349.25z"/>
		<path d="M154.4,263.05c11.4,14.2,24.5,7.5,27.7,5.3l208.7-137.4c9.6-6.4,11.7-19.2,5.3-28.7c-6.4-9.6-19.2-11.7-28.7-5.3
			l-190.6,127.8l-49-76.7c-5.3-9.6-18.1-12.8-27.7-6.4c-9.6,5.3-12.8,18.1-6.4,27.7L154.4,263.05z"/>
	</g>
</g>
<g>
</g>
<g>
</g>
<g>
</g>
<g>
</g>
<g>
</g>
<g>
</g>
<g>
</g>
<g>
</g>
<g>
</g>
<g>
</g>
<g>
</g>
<g>
</g>
<g>
</g>
<g>
</g>
<g>
</g>
</svg>
